# xmcd
#
# Track frame offsets:
#	150
#	15728
#	39758
#	53879
#	78709
#	96515
#	118994
#	145634
#	162157
#	187079
#	209217
#	235156
#	255826
#	279069
#	302216
#
# Disc length: 4337 seconds
#
# Revision: 1
# Processed by: cddbd v1.5.1PL2 Copyright (c) Steve Scherf et al.
# Submitted via: dBpowerAMP V4.0
#
DISCID=cf10ef0f
DTITLE=Various Artist - KoreanRockBlues
DYEAR=2000
DGENRE=Blues
TTITLE0=날려버려-사랑과평화
TTITLE1=잊어야한다면-사랑과평화
TTITLE2=무정한사람-김정호
TTITLE3=루씰-한영애
TTITLE4=목소리-김태화
TTITLE5=약속-변진섭
TTITLE6=그대내품에-유재하
TTITLE7=새벽2시5분-봄여름가을겨울
TTITLE8=BlueLine No,4-모난돌
TTITLE9=약속-김범수
TTITLE10=봄-한영애
TTITLE11=봄비-김정호
TTITLE12=기지촌-김민기&한영애
TTITLE13=달님-김정호
TTITLE14=짦은사랑긴이별-조항조
EXTD=포월
EXTT0=
EXTT1=
EXTT2=
EXTT3=
EXTT4=
EXTT5=
EXTT6=
EXTT7=
EXTT8=
EXTT9=
EXTT10=
EXTT11=
EXTT12=
EXTT13=
EXTT14=
PLAYORDER=
